# xmcd
#
# Track frame offsets:
# 150
# 15317
# 32175
# 49360
# 67027
# 85487
# 102440
# 117807
# 133432
# 148107
# 163955
# 188645
# 206765
# 223180
#
# Disc length: 3224 seconds
#
#
# Revision: 1
# Processed by: cddbd v1.5.2PL0 Copyright (c) Steve Scherf et al.
# Submitted via: FreeRIP 2.941 
#
DISCID=de0c960e
DTITLE=Zezé di Camargo and Luciano - CD01 - Seleções do Reader´s Digest
DYEAR=2006
DGENRE=Country
TTITLE0=É o amor
TTITLE1=Deus
TTITLE2=Eu só penso em você
TTITLE3=Vem cuidar de mim
TTITLE4=Indifereça
TTITLE5=Toma juízo
TTITLE6=Do jeito que a moçada gosta
TTITLE7=Nosso amor é ouro
TTITLE8=Eu nasci pra amar você
TTITLE9=Coração na contra-mão
TTITLE10=Preciso ser amado
TTITLE11=Fala sério
TTITLE12=Diz pro meu olhar
TTITLE13=Pare!
EXTD=++++++++++++++++\nripado por:\nrsilvino@terra.com.br
EXTT0=
EXTT1=
EXTT2=
EXTT3=
EXTT4=
EXTT5=
EXTT6=
EXTT7=
EXTT8=
EXTT9=
EXTT10=
EXTT11=
EXTT12=
EXTT13=
PLAYORDER=
